name rise44.8762peak52.3436fall86.788.mot
datacolumns 19
datarows 23
range 11.76995100000000 11.80662900000000
endheader
time	ground_force1_vx	ground_force1_vy	ground_force1_vz	ground_force1_px	ground_force1_py	ground_force1_pz	ground_force2_vx	ground_force2_vy	ground_force2_vz	ground_force2_px	ground_force2_py	ground_force2_pz	ground_torque1_x	ground_torque1_y	ground_torque1_z	ground_torque2_x	ground_torque2_y	ground_torque2_z	
11.76995100000000	-41.77915500000000	800.11077499999999	55.62355000000000	0.06544100000000	0.00000000000000	0.11706800000000	-8.94878900000000	31.87934900000000	5.50418800000000	0.31127700000000	0.00000000000000	-0.07168000000000	0.00000000000000	16.78819600000000	0.00000000000000	0.00000000000000	2.31592200000000	0.00000000000000	
11.77163200000000	-42.04761700000000	798.23271199999999	55.41055800000000	0.06480500000000	0.00000000000000	0.11692800000000	-10.15200500000000	38.04315700000000	6.36794600000000	0.31404900000000	0.00000000000000	-0.07234400000000	0.00000000000000	16.70620500000000	0.00000000000000	0.00000000000000	2.72132700000000	0.00000000000000	
11.77328300000000	-42.33622500000000	796.27114300000005	55.18058200000000	0.06416900000000	0.00000000000000	0.11678400000000	-11.22761000000000	44.32036400000000	7.18868600000000	0.31657000000000	0.00000000000000	-0.07295300000000	0.00000000000000	16.62787300000000	0.00000000000000	0.00000000000000	3.11971500000000	0.00000000000000	
11.77495100000000	-42.64551000000000	794.22520299999996	54.93351400000000	0.06353500000000	0.00000000000000	0.11663500000000	-12.13978100000000	50.60570700000000	7.94493500000000	0.31887700000000	0.00000000000000	-0.07351500000000	0.00000000000000	16.55338900000000	0.00000000000000	0.00000000000000	3.50185900000000	0.00000000000000	
11.77661700000000	-42.97593800000000	792.09395099999995	54.66926800000000	0.06290300000000	0.00000000000000	0.11648300000000	-12.86244600000000	56.81251200000000	8.62003200000000	0.32100000000000	0.00000000000000	-0.07403600000000	0.00000000000000	16.48293100000000	0.00000000000000	0.00000000000000	3.86025400000000	0.00000000000000	
11.77828600000000	-43.32790200000000	789.87636299999997	54.38778200000000	0.06227200000000	0.00000000000000	0.11632600000000	-13.38015600000000	62.87697700000000	9.20277100000000	0.32296200000000	0.00000000000000	-0.07452300000000	0.00000000000000	16.41665800000000	0.00000000000000	0.00000000000000	4.18943900000000	0.00000000000000	
11.77995400000000	-43.70172600000000	787.57133199999998	54.08902000000000	0.06164300000000	0.00000000000000	0.11616500000000	-13.68795500000000	68.75989600000000	9.68749100000000	0.32478400000000	0.00000000000000	-0.07498000000000	0.00000000000000	16.35471700000000	0.00000000000000	0.00000000000000	4.48610800000000	0.00000000000000	
11.78163800000000	-44.09765700000000	785.17766500000005	53.77296700000000	0.06101600000000	0.00000000000000	0.11600000000000	-13.79041700000000	74.44608599999999	10.07370000000000	0.32648300000000	0.00000000000000	-0.07541000000000	0.00000000000000	16.29723400000000	0.00000000000000	0.00000000000000	4.74902200000000	0.00000000000000	
11.78328300000000	-44.51586400000000	782.69408399999998	53.43963600000000	0.06039100000000	0.00000000000000	0.11583200000000	-13.70005800000000	79.94192500000000	10.36534200000000	0.32807300000000	0.00000000000000	-0.07581600000000	0.00000000000000	16.24432100000000	0.00000000000000	0.00000000000000	4.97876200000000	0.00000000000000	
11.78495100000000	-44.95643400000000	780.11922500000003	53.08906000000000	0.05976800000000	0.00000000000000	0.11565900000000	-13.43536500000000	85.27154200000000	10.56981600000000	0.32956600000000	0.00000000000000	-0.07620100000000	0.00000000000000	16.19606700000000	0.00000000000000	0.00000000000000	5.17738200000000	0.00000000000000	
11.78663300000000	-45.41937200000000	777.45163800000000	52.72130000000000	0.05914800000000	0.00000000000000	0.11548300000000	-13.01867200000000	90.47220700000000	10.69689000000000	0.33097100000000	0.00000000000000	-0.07656800000000	0.00000000000000	16.15254600000000	0.00000000000000	0.00000000000000	5.34799300000000	0.00000000000000	
11.78828500000000	-45.90459400000000	774.68978800000002	52.33643700000000	0.05853000000000	0.00000000000000	0.11530300000000	-12.47408700000000	95.58944500000000	10.75760200000000	0.33229900000000	0.00000000000000	-0.07691800000000	0.00000000000000	16.11380800000000	0.00000000000000	0.00000000000000	5.49433400000000	0.00000000000000	
11.78995500000000	-46.41193200000000	771.83205799999996	51.93457900000000	0.05791500000000	0.00000000000000	0.11511900000000	-11.82561900000000	100.67231000000000	10.76325100000000	0.33355500000000	0.00000000000000	-0.07725300000000	0.00000000000000	16.07988400000000	0.00000000000000	0.00000000000000	5.62036800000000	0.00000000000000	
11.79166400000000	-46.94112200000000	768.87675000000002	51.51585500000000	0.05730300000000	0.00000000000000	0.11493100000000	-11.09563500000000	105.76918000000001	10.72453600000000	0.33474600000000	0.00000000000000	-0.07757400000000	0.00000000000000	16.05078500000000	0.00000000000000	0.00000000000000	5.72992600000000	0.00000000000000	
11.79328800000000	-47.49181200000000	765.82209300000000	51.08041700000000	0.05669400000000	0.00000000000000	0.11474100000000	-10.30370000000000	110.92430500000000	10.65088800000000	0.33587800000000	0.00000000000000	-0.07788300000000	0.00000000000000	16.02649600000000	0.00000000000000	0.00000000000000	5.82642500000000	0.00000000000000	
11.79495100000000	-48.06355400000000	762.66624000000002	50.62844100000000	0.05608800000000	0.00000000000000	0.11454600000000	-9.46582500000000	116.17525100000000	10.55001900000000	0.33695400000000	0.00000000000000	-0.07818100000000	0.00000000000000	16.00698400000000	0.00000000000000	0.00000000000000	5.91266400000000	0.00000000000000	
11.79663000000000	-48.65580400000000	759.40727800000002	50.16012300000000	0.05548500000000	0.00000000000000	0.11434900000000	-8.59411500000000	121.55126799999999	10.42767000000000	0.33797900000000	0.00000000000000	-0.07846900000000	0.00000000000000	15.99218900000000	0.00000000000000	0.00000000000000	5.99070300000000	0.00000000000000	
11.79828700000000	-49.26792400000000	756.04323399999998	49.67568200000000	0.05488600000000	0.00000000000000	0.11414800000000	-7.69676300000000	127.07254200000000	10.28755900000000	0.33895500000000	0.00000000000000	-0.07874700000000	0.00000000000000	15.98203100000000	0.00000000000000	0.00000000000000	6.06182100000000	0.00000000000000	
11.79995600000000	-49.89917600000000	752.57207800000003	49.17535800000000	0.05429000000000	0.00000000000000	0.11394400000000	-6.77833200000000	132.75023800000000	10.13148200000000	0.33988600000000	0.00000000000000	-0.07901700000000	0.00000000000000	15.97640400000000	0.00000000000000	0.00000000000000	6.12653700000000	0.00000000000000	
11.80163800000000	-50.54872300000000	748.99173099999996	48.65941200000000	0.05369700000000	0.00000000000000	0.11373800000000	-5.84025600000000	138.58717100000001	9.95954300000000	0.34077400000000	0.00000000000000	-0.07927900000000	0.00000000000000	15.97518100000000	0.00000000000000	0.00000000000000	6.18468900000000	0.00000000000000	
11.80328400000000	-51.21563400000000	745.30007400000000	48.12812400000000	0.05310900000000	0.00000000000000	0.11352800000000	-4.88147700000000	144.57894600000000	9.77046700000000	0.34162000000000	0.00000000000000	-0.07953300000000	0.00000000000000	15.97821000000000	0.00000000000000	0.00000000000000	6.23554400000000	0.00000000000000	
11.80495200000000	-51.89887400000000	741.49495200000001	47.58179400000000	0.05252300000000	0.00000000000000	0.11331600000000	-3.89914100000000	150.71540100000001	9.56195400000000	0.34242600000000	0.00000000000000	-0.07978100000000	0.00000000000000	15.98531600000000	0.00000000000000	0.00000000000000	6.27793800000000	0.00000000000000	
11.80662900000000	-52.59731400000000	737.57418800000005	47.02074200000000	0.05194100000000	0.00000000000000	0.11310100000000	-2.88930200000000	156.98217900000000	9.33105400000000	0.34319300000000	0.00000000000000	-0.08002200000000	0.00000000000000	15.99629900000000	0.00000000000000	0.00000000000000	6.31042200000000	0.00000000000000	
